<svg xmlns="http://www.w3.org/2000/svg" width="1800" height="2100" viewBox="0 0 1800 2100">
<defs><marker id="arrow" markerWidth="8" markerHeight="8" refX="4" refY="4" orient="auto-start-reverse"><path d="M0,0 L8,4 L0,8 Z" fill="#374151"/></marker></defs>
<style>
.bg{fill:#f8fafc} .panel{fill:#fff;stroke:#d1d5db;stroke-width:1.2} .line{stroke:#111827;stroke-width:1.8;fill:none} .wall{stroke:#111827;stroke-width:3.2;fill:none} .grid{stroke:#e5e7eb;stroke-width:1;fill:none} .axis{stroke:#6b7280;stroke-width:1.1;stroke-dasharray:6 5;fill:none} .dim{stroke:#374151;stroke-width:1.25;fill:none;marker-start:url(#arrow);marker-end:url(#arrow)} .tick{stroke:#374151;stroke-width:1.15} .title{font-family:Arial,Helvetica,sans-serif;font-size:31px;font-weight:700;fill:#111827} .subtitle{font-family:Arial,Helvetica,sans-serif;font-size:14px;fill:#4b5563} .section{font-family:Arial,Helvetica,sans-serif;font-size:21px;font-weight:700;fill:#111827} .label{font-family:Arial,Helvetica,sans-serif;font-size:15px;fill:#111827} .small{font-family:Arial,Helvetica,sans-serif;font-size:12.5px;fill:#374151} .tiny{font-family:Arial,Helvetica,sans-serif;font-size:11px;fill:#374151} .note{font-family:Arial,Helvetica,sans-serif;font-size:13px;fill:#4b5563} .nook{fill:#fff7ed;stroke:#f97316;stroke-width:2.2} .cab600{fill:#dbeafe;fill-opacity:.65;stroke:#2563eb;stroke-width:2.5} .cab752{fill:#dcfce7;fill-opacity:.75;stroke:#16a34a;stroke-width:3} .cab800{fill:#f3e8ff;fill-opacity:.70;stroke:#7c3aed;stroke-width:2.5} .cart{fill:#f3f4f6;stroke:#374151;stroke-width:2.3} .vent{fill:#ecfeff;fill-opacity:.85;stroke:#0891b2;stroke-width:1.1} .call{fill:#f9fafb;stroke:#d1d5db;stroke-width:1.1} .good{fill:#ecfdf5;stroke:#10b981;stroke-width:1.3} .warn{fill:#fff7ed;stroke:#fb923c;stroke-width:1.3} .bad{fill:#fef2f2;stroke:#ef4444;stroke-width:1.3} .tower{fill:#e5e7eb;stroke:#111827;stroke-width:1.5}
</style><rect class="bg" x="0" y="0" width="1800" height="2100"/>

<text x="50.0" y="45.0" class="title" text-anchor="start">Laundry nook - corrected high cabinet elevation set - v4</text>
<text x="50.0" y="70.0" class="subtitle" text-anchor="start">The elevation below is drawn as a real 1040 mm nominal bay with cabinet widths and allowed trolley heights. Units are millimetres.</text>
<rect x="50.0" y="95.0" width="1700.0" height="165.0" rx="14" class="panel"/>
<text x="74.0" y="130.0" class="section" text-anchor="start">Basis dimensions</text>
<rect x="78.0" y="150.0" width="300.0" height="78.0" rx="8" class="call"/>
<text x="92.0" y="176.0" class="label" text-anchor="start" style="font-size:15px;font-weight:700">Nook width</text>
<text x="92.0" y="198.0" class="tiny" text-anchor="start">1040 nominal bay beside laundry linen</text>
<rect x="408.0" y="150.0" width="300.0" height="78.0" rx="8" class="call"/>
<text x="422.0" y="176.0" class="label" text-anchor="start" style="font-size:15px;font-weight:700">Height</text>
<text x="422.0" y="198.0" class="tiny" text-anchor="start">2590 ceiling / wall-frame height</text>
<rect x="738.0" y="150.0" width="300.0" height="78.0" rx="8" class="call"/>
<text x="752.0" y="176.0" class="label" text-anchor="start" style="font-size:15px;font-weight:700">Depth</text>
<text x="752.0" y="198.0" class="tiny" text-anchor="start">1650 room depth; 620</text>
<text x="752.0" y="212.0" class="tiny" text-anchor="start">joinery/appliance line</text>
<rect x="1068.0" y="150.0" width="300.0" height="78.0" rx="8" class="call"/>
<text x="1082.0" y="176.0" class="label" text-anchor="start" style="font-size:15px;font-weight:700">Mounting</text>
<text x="1082.0" y="198.0" class="tiny" text-anchor="start">top at 2440 with 150 top clearance;</text>
<text x="1082.0" y="212.0" class="tiny" text-anchor="start">2390 with 200</text>
<rect x="1398.0" y="150.0" width="300.0" height="78.0" rx="8" class="call"/>
<text x="1412.0" y="176.0" class="label" text-anchor="start" style="font-size:15px;font-weight:700">Depth limit</text>
<text x="1412.0" y="198.0" class="tiny" text-anchor="start">1650 - 870 door swing = 780</text>
<text x="1412.0" y="212.0" class="tiny" text-anchor="start">projection limit</text>
<rect x="50.0" y="290.0" width="1180.0" height="1040.0" rx="14" class="panel"/>
<text x="74.0" y="325.0" class="section" text-anchor="start">2) Nook elevation - high wall cabinet width comparison</text>
<text x="245.0" y="363.0" class="label" text-anchor="middle" style="font-size:16px;font-weight:700;fill:#111827">B1 - 9U standard cheap/common</text>
<text x="245.0" y="384.0" class="small" text-anchor="middle">cabinet 600W x 450D x 510H</text>
<rect x="115.0" y="415.0" width="260.0" height="880.6" rx="0" class="nook"/>
<rect x="115.0" y="415.0" width="260.0" height="51.0" rx="0" class="vent"/>
<line x1="115.0" y1="466.0" x2="375.0" y2="466.0" class="axis"/>
<line x1="115.0" y1="483.0" x2="375.0" y2="483.0" class="axis"/>
<line x1="115.0" y1="581.6" x2="375.0" y2="581.6" class="grid"/>
<text x="107.0" y="585.6" class="tiny" text-anchor="end">2100 joinery ref</text>
<rect x="170.0" y="466.0" width="150.0" height="173.4" rx="0" class="cab600"/>
<text x="245.0" y="494.0" class="label" text-anchor="middle" style="font-weight:700">600W</text>
<text x="245.0" y="516.0" class="small" text-anchor="middle">9U / 510H</text>
<line x1="115.0" y1="451.0" x2="170.0" y2="451.0" class="dim"/>
<line x1="115.0" y1="444.0" x2="115.0" y2="458.0" class="tick"/>
<line x1="170.0" y1="444.0" x2="170.0" y2="458.0" class="tick"/>
<text x="142.5" y="442.0" class="small" text-anchor="middle">220</text>
<line x1="320.0" y1="451.0" x2="375.0" y2="451.0" class="dim"/>
<line x1="320.0" y1="444.0" x2="320.0" y2="458.0" class="tick"/>
<line x1="375.0" y1="444.0" x2="375.0" y2="458.0" class="tick"/>
<text x="347.5" y="442.0" class="small" text-anchor="middle">220</text>
<line x1="170.0" y1="659.4" x2="320.0" y2="659.4" class="dim"/>
<line x1="170.0" y1="652.4" x2="170.0" y2="666.4" class="tick"/>
<line x1="320.0" y1="652.4" x2="320.0" y2="666.4" class="tick"/>
<text x="245.0" y="678.4" class="small" text-anchor="middle">600 cabinet width</text>
<rect x="122.5" y="656.4" width="245.0" height="639.2" rx="0" class="cart"/>
<text x="245.0" y="682.4" class="label" text-anchor="middle" style="font-weight:700">trolley &lt;= 1880H</text>
<text x="245.0" y="704.4" class="small" text-anchor="middle">or 1830H @ 200 top gap</text>
<line x1="115.0" y1="639.4" x2="375.0" y2="639.4" class="axis"/>
<text x="245.0" y="654.4" class="tiny" text-anchor="middle">cabinet bottom 1930; 50 service gap</text>
<line x1="77.0" y1="415.0" x2="77.0" y2="1295.6" class="dim"/>
<line x1="70.0" y1="415.0" x2="84.0" y2="415.0" class="tick"/>
<line x1="70.0" y1="1295.6" x2="84.0" y2="1295.6" class="tick"/>
<text x="91.0" y="855.3" class="small" text-anchor="middle" transform="rotate(-90 91.0 855.3)">2590</text>
<line x1="115.0" y1="397.0" x2="375.0" y2="397.0" class="dim"/>
<line x1="115.0" y1="390.0" x2="115.0" y2="404.0" class="tick"/>
<line x1="375.0" y1="390.0" x2="375.0" y2="404.0" class="tick"/>
<text x="245.0" y="388.0" class="small" text-anchor="middle">1040 bay</text>
<text x="245.0" y="1317.6" class="small" text-anchor="middle">floor</text>
<text x="610.0" y="363.0" class="label" text-anchor="middle" style="font-size:16px;font-weight:700;fill:#16a34a">B2 - 9U wide preferred</text>
<text x="610.0" y="384.0" class="small" text-anchor="middle">cabinet 752W x 551D x 504H</text>
<rect x="480.0" y="415.0" width="260.0" height="880.6" rx="0" class="nook"/>
<rect x="480.0" y="415.0" width="260.0" height="51.0" rx="0" class="vent"/>
<line x1="480.0" y1="466.0" x2="740.0" y2="466.0" class="axis"/>
<line x1="480.0" y1="483.0" x2="740.0" y2="483.0" class="axis"/>
<line x1="480.0" y1="581.6" x2="740.0" y2="581.6" class="grid"/>
<rect x="516.0" y="466.0" width="188.0" height="171.4" rx="0" class="cab752"/>
<text x="610.0" y="494.0" class="label" text-anchor="middle" style="font-weight:700">752W</text>
<text x="610.0" y="516.0" class="small" text-anchor="middle">9U / 504H</text>
<line x1="480.0" y1="451.0" x2="516.0" y2="451.0" class="dim"/>
<line x1="480.0" y1="444.0" x2="480.0" y2="458.0" class="tick"/>
<line x1="516.0" y1="444.0" x2="516.0" y2="458.0" class="tick"/>
<text x="498.0" y="442.0" class="small" text-anchor="middle">144</text>
<line x1="704.0" y1="451.0" x2="740.0" y2="451.0" class="dim"/>
<line x1="704.0" y1="444.0" x2="704.0" y2="458.0" class="tick"/>
<line x1="740.0" y1="444.0" x2="740.0" y2="458.0" class="tick"/>
<text x="722.0" y="442.0" class="small" text-anchor="middle">144</text>
<line x1="516.0" y1="657.4" x2="704.0" y2="657.4" class="dim"/>
<line x1="516.0" y1="650.4" x2="516.0" y2="664.4" class="tick"/>
<line x1="704.0" y1="650.4" x2="704.0" y2="664.4" class="tick"/>
<text x="610.0" y="676.4" class="small" text-anchor="middle">752 cabinet width</text>
<rect x="487.5" y="654.4" width="245.0" height="641.2" rx="0" class="cart"/>
<text x="610.0" y="680.4" class="label" text-anchor="middle" style="font-weight:700">trolley &lt;= 1886H</text>
<text x="610.0" y="702.4" class="small" text-anchor="middle">or 1836H @ 200 top gap</text>
<line x1="480.0" y1="637.4" x2="740.0" y2="637.4" class="axis"/>
<text x="610.0" y="652.4" class="tiny" text-anchor="middle">cabinet bottom 1936; 50 service gap</text>
<line x1="480.0" y1="397.0" x2="740.0" y2="397.0" class="dim"/>
<line x1="480.0" y1="390.0" x2="480.0" y2="404.0" class="tick"/>
<line x1="740.0" y1="390.0" x2="740.0" y2="404.0" class="tick"/>
<text x="610.0" y="388.0" class="small" text-anchor="middle">1040 bay</text>
<text x="610.0" y="1317.6" class="small" text-anchor="middle">floor</text>
<text x="975.0" y="363.0" class="label" text-anchor="middle" style="font-size:16px;font-weight:700;fill:#111827">B3 - 9U import/custom wide</text>
<text x="975.0" y="384.0" class="small" text-anchor="middle">cabinet 800W x 550D x 510H</text>
<rect x="845.0" y="415.0" width="260.0" height="880.6" rx="0" class="nook"/>
<rect x="845.0" y="415.0" width="260.0" height="51.0" rx="0" class="vent"/>
<line x1="845.0" y1="466.0" x2="1105.0" y2="466.0" class="axis"/>
<line x1="845.0" y1="483.0" x2="1105.0" y2="483.0" class="axis"/>
<text x="1113.0" y="470.0" class="tiny" text-anchor="start">150 clear</text>
<text x="1113.0" y="487.0" class="tiny" text-anchor="start">200 clear</text>
<line x1="845.0" y1="581.6" x2="1105.0" y2="581.6" class="grid"/>
<rect x="875.0" y="466.0" width="200.0" height="173.4" rx="0" class="cab800"/>
<text x="975.0" y="494.0" class="label" text-anchor="middle" style="font-weight:700">800W</text>
<text x="975.0" y="516.0" class="small" text-anchor="middle">9U / 510H</text>
<line x1="845.0" y1="451.0" x2="875.0" y2="451.0" class="dim"/>
<line x1="845.0" y1="444.0" x2="845.0" y2="458.0" class="tick"/>
<line x1="875.0" y1="444.0" x2="875.0" y2="458.0" class="tick"/>
<text x="860.0" y="442.0" class="small" text-anchor="middle">120</text>
<line x1="1075.0" y1="451.0" x2="1105.0" y2="451.0" class="dim"/>
<line x1="1075.0" y1="444.0" x2="1075.0" y2="458.0" class="tick"/>
<line x1="1105.0" y1="444.0" x2="1105.0" y2="458.0" class="tick"/>
<text x="1090.0" y="442.0" class="small" text-anchor="middle">120</text>
<line x1="875.0" y1="659.4" x2="1075.0" y2="659.4" class="dim"/>
<line x1="875.0" y1="652.4" x2="875.0" y2="666.4" class="tick"/>
<line x1="1075.0" y1="652.4" x2="1075.0" y2="666.4" class="tick"/>
<text x="975.0" y="678.4" class="small" text-anchor="middle">800 cabinet width</text>
<rect x="852.5" y="656.4" width="245.0" height="639.2" rx="0" class="cart"/>
<text x="975.0" y="682.4" class="label" text-anchor="middle" style="font-weight:700">trolley &lt;= 1880H</text>
<text x="975.0" y="704.4" class="small" text-anchor="middle">or 1830H @ 200 top gap</text>
<line x1="845.0" y1="639.4" x2="1105.0" y2="639.4" class="axis"/>
<text x="975.0" y="654.4" class="tiny" text-anchor="middle">cabinet bottom 1930; 50 service gap</text>
<line x1="845.0" y1="397.0" x2="1105.0" y2="397.0" class="dim"/>
<line x1="845.0" y1="390.0" x2="845.0" y2="404.0" class="tick"/>
<line x1="1105.0" y1="390.0" x2="1105.0" y2="404.0" class="tick"/>
<text x="975.0" y="388.0" class="small" text-anchor="middle">1040 bay</text>
<text x="975.0" y="1317.6" class="small" text-anchor="middle">floor</text>
<rect x="1260.0" y="290.0" width="490.0" height="1040.0" rx="14" class="panel"/>
<text x="1284.0" y="325.0" class="section" text-anchor="start">Side depth + tower orientation</text>
<text x="1290.0" y="345.0" class="label" text-anchor="start" style="font-weight:700">Wall-box depth check</text>
<rect x="1295.0" y="375.0" width="445.5" height="220.0" rx="0" class="call"/>
<line x1="1295.0" y1="375.0" x2="1295.0" y2="595.0" class="wall"/>
<rect x="1295.0" y="395.0" width="121.5" height="34.0" rx="0" class="cab600"/>
<text x="1424.5" y="417.0" class="tiny" text-anchor="start">450D common</text>
<rect x="1295.0" y="443.0" width="148.8" height="34.0" rx="0" class="cab752"/>
<text x="1451.8" y="465.0" class="tiny" text-anchor="start">551D wide</text>
<rect x="1295.0" y="491.0" width="162.0" height="34.0" rx="0" class="cab800"/>
<text x="1465.0" y="513.0" class="tiny" text-anchor="start">600D still OK</text>
<rect x="1295.0" y="539.0" width="189.0" height="34.0" rx="0" class="bad"/>
<text x="1492.0" y="561.0" class="tiny" text-anchor="start">700D front-facing tower zone</text>
<line x1="1505.6" y1="375.0" x2="1505.6" y2="595.0" class="axis"/>
<text x="1513.6" y="483.0" class="tiny" text-anchor="start" transform="rotate(-90 1513.6 483)">780 depth limit</text>
<line x1="1295.0" y1="630.0" x2="1740.5" y2="630.0" class="dim"/>
<line x1="1295.0" y1="623.0" x2="1295.0" y2="637.0" class="tick"/>
<line x1="1740.5" y1="623.0" x2="1740.5" y2="637.0" class="tick"/>
<text x="1517.8" y="649.0" class="small" text-anchor="middle">1650 room depth</text>
<line x1="1295.0" y1="660.0" x2="1462.4" y2="660.0" class="dim"/>
<line x1="1295.0" y1="653.0" x2="1295.0" y2="667.0" class="tick"/>
<line x1="1462.4" y1="653.0" x2="1462.4" y2="667.0" class="tick"/>
<text x="1378.7" y="679.0" class="small" text-anchor="middle">620 joinery line</text>
<text x="1290.0" y="730.0" class="label" text-anchor="start" style="font-weight:700">Full-tower cart orientation</text>
<rect x="1300.0" y="760.0" width="245.0" height="125.0" rx="0" class="cart"/>
<rect x="1328.0" y="788.0" width="165.0" height="42.5" rx="5" class="tower"/>
<rect x="1328.0" y="838.0" width="165.0" height="42.5" rx="5" class="tower"/>
<text x="1422.5" y="750.0" class="small" text-anchor="middle">preferred: 980W x ~500D</text>
<text x="1422.5" y="818.0" class="tiny" text-anchor="middle">tower sideways, stacked by shelf</text>
<line x1="1300.0" y1="909.0" x2="1545.0" y2="909.0" class="dim"/>
<line x1="1300.0" y1="902.0" x2="1300.0" y2="916.0" class="tick"/>
<line x1="1545.0" y1="902.0" x2="1545.0" y2="916.0" class="tick"/>
<text x="1422.5" y="928.0" class="small" text-anchor="middle">980W</text>
<line x1="1282.0" y1="760.0" x2="1282.0" y2="885.0" class="dim"/>
<line x1="1275.0" y1="760.0" x2="1289.0" y2="760.0" class="tick"/>
<line x1="1275.0" y1="885.0" x2="1289.0" y2="885.0" class="tick"/>
<text x="1268.0" y="822.5" class="small" text-anchor="middle" transform="rotate(-90 1268 822.5)">500D</text>
<rect x="1300.0" y="960.0" width="245.0" height="180.0" rx="0" class="bad"/>
<rect x="1335.0" y="985.0" width="72.5" height="162.5" rx="5" class="tower"/>
<rect x="1435.0" y="985.0" width="72.5" height="162.5" rx="5" class="tower"/>
<text x="1422.5" y="950.0" class="small" text-anchor="middle">front-facing: 650-800D cart</text>
<line x1="1282.0" y1="960.0" x2="1282.0" y2="1140.0" class="dim"/>
<line x1="1275.0" y1="960.0" x2="1289.0" y2="960.0" class="tick"/>
<line x1="1275.0" y1="1140.0" x2="1289.0" y2="1140.0" class="tick"/>
<text x="1268.0" y="1050.0" class="small" text-anchor="middle" transform="rotate(-90 1268 1050.0)">700D+</text>
<rect x="1290.0" y="1180.0" width="420.0" height="95.0" rx="10" class="good"/>
<text x="1308.0" y="1208.0" class="label" text-anchor="start" style="font-weight:700">Tower rule</text>
<text x="1308.0" y="1232.0" class="note" text-anchor="start">Sideways + vertically stacked towers are the clean</text>
<text x="1308.0" y="1249.0" class="note" text-anchor="start">layout. Front-facing towers work only if you accept</text>
<text x="1308.0" y="1266.0" class="note" text-anchor="start">a much deeper trolley projecting into the laundry.</text>
<rect x="50.0" y="1360.0" width="1700.0" height="650.0" rx="14" class="panel"/>
<text x="74.0" y="1395.0" class="section" text-anchor="start">Option table - trolley heights permitted under each top cabinet</text>
<rect x="75.0" y="1420.0" width="50.0" height="42.0" rx="0" class="call"/>
<text x="82.0" y="1445.0" class="tiny" text-anchor="start" style="font-weight:700">ID</text>
<rect x="130.0" y="1420.0" width="210.0" height="42.0" rx="0" class="call"/>
<text x="137.0" y="1445.0" class="tiny" text-anchor="start" style="font-weight:700">Top cabinet</text>
<rect x="345.0" y="1420.0" width="155.0" height="42.0" rx="0" class="call"/>
<text x="352.0" y="1445.0" class="tiny" text-anchor="start" style="font-weight:700">W x D x H</text>
<rect x="505.0" y="1420.0" width="130.0" height="42.0" rx="0" class="call"/>
<text x="512.0" y="1445.0" class="tiny" text-anchor="start" style="font-weight:700">Side clear each</text>
<rect x="640.0" y="1420.0" width="100.0" height="42.0" rx="0" class="call"/>
<text x="647.0" y="1445.0" class="tiny" text-anchor="start" style="font-weight:700">Clear aisle</text>
<rect x="745.0" y="1420.0" width="100.0" height="42.0" rx="0" class="call"/>
<text x="752.0" y="1445.0" class="tiny" text-anchor="start" style="font-weight:700">Door margin</text>
<rect x="855.0" y="1420.0" width="105.0" height="42.0" rx="0" class="call"/>
<text x="862.0" y="1445.0" class="tiny" text-anchor="start" style="font-weight:700">Cart H @150</text>
<rect x="965.0" y="1420.0" width="105.0" height="42.0" rx="0" class="call"/>
<text x="972.0" y="1445.0" class="tiny" text-anchor="start" style="font-weight:700">Cart H @200</text>
<rect x="1080.0" y="1420.0" width="620.0" height="42.0" rx="0" class="call"/>
<text x="1087.0" y="1445.0" class="tiny" text-anchor="start" style="font-weight:700">Comment</text>
<rect x="75.0" y="1462.0" width="50.0" height="42.0" rx="0" class="call"/>
<rect x="130.0" y="1462.0" width="210.0" height="42.0" rx="0" class="call"/>
<rect x="345.0" y="1462.0" width="155.0" height="42.0" rx="0" class="call"/>
<rect x="505.0" y="1462.0" width="130.0" height="42.0" rx="0" class="call"/>
<rect x="640.0" y="1462.0" width="100.0" height="42.0" rx="0" class="call"/>
<rect x="745.0" y="1462.0" width="100.0" height="42.0" rx="0" class="call"/>
<rect x="855.0" y="1462.0" width="105.0" height="42.0" rx="0" class="call"/>
<rect x="965.0" y="1462.0" width="105.0" height="42.0" rx="0" class="call"/>
<rect x="1080.0" y="1462.0" width="620.0" height="42.0" rx="0" class="call"/>
<text x="82.0" y="1487.0" class="tiny" text-anchor="start" style="font-weight:700">A2</text>
<text x="137.0" y="1487.0" class="tiny" text-anchor="start">6U wide</text>
<text x="352.0" y="1487.0" class="tiny" text-anchor="start">752 x 551 x 370</text>
<text x="512.0" y="1487.0" class="tiny" text-anchor="start">144 mm</text>
<text x="647.0" y="1487.0" class="tiny" text-anchor="start">1099 mm</text>
<text x="752.0" y="1487.0" class="tiny" text-anchor="start">229 mm</text>
<text x="862.0" y="1487.0" class="tiny" text-anchor="start">2020 mm</text>
<text x="972.0" y="1487.0" class="tiny" text-anchor="start">1970 mm</text>
<text x="1087.0" y="1487.0" class="tiny" text-anchor="start">maximum trolley height; rack space tight</text>
<rect x="75.0" y="1504.0" width="50.0" height="42.0" rx="0" class="call"/>
<rect x="130.0" y="1504.0" width="210.0" height="42.0" rx="0" class="call"/>
<rect x="345.0" y="1504.0" width="155.0" height="42.0" rx="0" class="call"/>
<rect x="505.0" y="1504.0" width="130.0" height="42.0" rx="0" class="call"/>
<rect x="640.0" y="1504.0" width="100.0" height="42.0" rx="0" class="call"/>
<rect x="745.0" y="1504.0" width="100.0" height="42.0" rx="0" class="call"/>
<rect x="855.0" y="1504.0" width="105.0" height="42.0" rx="0" class="call"/>
<rect x="965.0" y="1504.0" width="105.0" height="42.0" rx="0" class="call"/>
<rect x="1080.0" y="1504.0" width="620.0" height="42.0" rx="0" class="call"/>
<text x="82.0" y="1529.0" class="tiny" text-anchor="start" style="font-weight:700">A3</text>
<text x="137.0" y="1529.0" class="tiny" text-anchor="start">6U import/custom wide</text>
<text x="352.0" y="1529.0" class="tiny" text-anchor="start">800 x 550 x 370</text>
<text x="512.0" y="1529.0" class="tiny" text-anchor="start">120 mm</text>
<text x="647.0" y="1529.0" class="tiny" text-anchor="start">1100 mm</text>
<text x="752.0" y="1529.0" class="tiny" text-anchor="start">230 mm</text>
<text x="862.0" y="1529.0" class="tiny" text-anchor="start">2020 mm</text>
<text x="972.0" y="1529.0" class="tiny" text-anchor="start">1970 mm</text>
<text x="1087.0" y="1529.0" class="tiny" text-anchor="start">maximum trolley height; wider cable room</text>
<rect x="75.0" y="1546.0" width="50.0" height="42.0" rx="0" class="call"/>
<rect x="130.0" y="1546.0" width="210.0" height="42.0" rx="0" class="call"/>
<rect x="345.0" y="1546.0" width="155.0" height="42.0" rx="0" class="call"/>
<rect x="505.0" y="1546.0" width="130.0" height="42.0" rx="0" class="call"/>
<rect x="640.0" y="1546.0" width="100.0" height="42.0" rx="0" class="call"/>
<rect x="745.0" y="1546.0" width="100.0" height="42.0" rx="0" class="call"/>
<rect x="855.0" y="1546.0" width="105.0" height="42.0" rx="0" class="call"/>
<rect x="965.0" y="1546.0" width="105.0" height="42.0" rx="0" class="call"/>
<rect x="1080.0" y="1546.0" width="620.0" height="42.0" rx="0" class="call"/>
<text x="82.0" y="1571.0" class="tiny" text-anchor="start" style="font-weight:700">B1</text>
<text x="137.0" y="1571.0" class="tiny" text-anchor="start">9U standard cheap/common</text>
<text x="352.0" y="1571.0" class="tiny" text-anchor="start">600 x 450 x 510</text>
<text x="512.0" y="1571.0" class="tiny" text-anchor="start">220 mm</text>
<text x="647.0" y="1571.0" class="tiny" text-anchor="start">1200 mm</text>
<text x="752.0" y="1571.0" class="tiny" text-anchor="start">330 mm</text>
<text x="862.0" y="1571.0" class="tiny" text-anchor="start">1880 mm</text>
<text x="972.0" y="1571.0" class="tiny" text-anchor="start">1830 mm</text>
<text x="1087.0" y="1571.0" class="tiny" text-anchor="start">cheapest tidy 9U</text>
<rect x="75.0" y="1588.0" width="50.0" height="42.0" rx="0" class="good"/>
<rect x="130.0" y="1588.0" width="210.0" height="42.0" rx="0" class="good"/>
<rect x="345.0" y="1588.0" width="155.0" height="42.0" rx="0" class="good"/>
<rect x="505.0" y="1588.0" width="130.0" height="42.0" rx="0" class="good"/>
<rect x="640.0" y="1588.0" width="100.0" height="42.0" rx="0" class="good"/>
<rect x="745.0" y="1588.0" width="100.0" height="42.0" rx="0" class="good"/>
<rect x="855.0" y="1588.0" width="105.0" height="42.0" rx="0" class="good"/>
<rect x="965.0" y="1588.0" width="105.0" height="42.0" rx="0" class="good"/>
<rect x="1080.0" y="1588.0" width="620.0" height="42.0" rx="0" class="good"/>
<text x="82.0" y="1613.0" class="tiny" text-anchor="start" style="font-weight:700">B2</text>
<text x="137.0" y="1613.0" class="tiny" text-anchor="start">9U wide preferred</text>
<text x="352.0" y="1613.0" class="tiny" text-anchor="start">752 x 551 x 504</text>
<text x="512.0" y="1613.0" class="tiny" text-anchor="start">144 mm</text>
<text x="647.0" y="1613.0" class="tiny" text-anchor="start">1099 mm</text>
<text x="752.0" y="1613.0" class="tiny" text-anchor="start">229 mm</text>
<text x="862.0" y="1613.0" class="tiny" text-anchor="start">1886 mm</text>
<text x="972.0" y="1613.0" class="tiny" text-anchor="start">1836 mm</text>
<text x="1087.0" y="1613.0" class="tiny" text-anchor="start">best balance</text>
<rect x="75.0" y="1630.0" width="50.0" height="42.0" rx="0" class="call"/>
<rect x="130.0" y="1630.0" width="210.0" height="42.0" rx="0" class="call"/>
<rect x="345.0" y="1630.0" width="155.0" height="42.0" rx="0" class="call"/>
<rect x="505.0" y="1630.0" width="130.0" height="42.0" rx="0" class="call"/>
<rect x="640.0" y="1630.0" width="100.0" height="42.0" rx="0" class="call"/>
<rect x="745.0" y="1630.0" width="100.0" height="42.0" rx="0" class="call"/>
<rect x="855.0" y="1630.0" width="105.0" height="42.0" rx="0" class="call"/>
<rect x="965.0" y="1630.0" width="105.0" height="42.0" rx="0" class="call"/>
<rect x="1080.0" y="1630.0" width="620.0" height="42.0" rx="0" class="call"/>
<text x="82.0" y="1655.0" class="tiny" text-anchor="start" style="font-weight:700">B3</text>
<text x="137.0" y="1655.0" class="tiny" text-anchor="start">9U import/custom wide</text>
<text x="352.0" y="1655.0" class="tiny" text-anchor="start">800 x 550 x 510</text>
<text x="512.0" y="1655.0" class="tiny" text-anchor="start">120 mm</text>
<text x="647.0" y="1655.0" class="tiny" text-anchor="start">1100 mm</text>
<text x="752.0" y="1655.0" class="tiny" text-anchor="start">230 mm</text>
<text x="862.0" y="1655.0" class="tiny" text-anchor="start">1880 mm</text>
<text x="972.0" y="1655.0" class="tiny" text-anchor="start">1830 mm</text>
<text x="1087.0" y="1655.0" class="tiny" text-anchor="start">best AliExpress/custom target</text>
<rect x="75.0" y="1672.0" width="50.0" height="42.0" rx="0" class="warn"/>
<rect x="130.0" y="1672.0" width="210.0" height="42.0" rx="0" class="warn"/>
<rect x="345.0" y="1672.0" width="155.0" height="42.0" rx="0" class="warn"/>
<rect x="505.0" y="1672.0" width="130.0" height="42.0" rx="0" class="warn"/>
<rect x="640.0" y="1672.0" width="100.0" height="42.0" rx="0" class="warn"/>
<rect x="745.0" y="1672.0" width="100.0" height="42.0" rx="0" class="warn"/>
<rect x="855.0" y="1672.0" width="105.0" height="42.0" rx="0" class="warn"/>
<rect x="965.0" y="1672.0" width="105.0" height="42.0" rx="0" class="warn"/>
<rect x="1080.0" y="1672.0" width="620.0" height="42.0" rx="0" class="warn"/>
<text x="82.0" y="1697.0" class="tiny" text-anchor="start" style="font-weight:700">C2</text>
<text x="137.0" y="1697.0" class="tiny" text-anchor="start">12U deeper switch-depth</text>
<text x="352.0" y="1697.0" class="tiny" text-anchor="start">600 x 563 x 637</text>
<text x="512.0" y="1697.0" class="tiny" text-anchor="start">220 mm</text>
<text x="647.0" y="1697.0" class="tiny" text-anchor="start">1087 mm</text>
<text x="752.0" y="1697.0" class="tiny" text-anchor="start">217 mm</text>
<text x="862.0" y="1697.0" class="tiny" text-anchor="start">1753 mm</text>
<text x="972.0" y="1697.0" class="tiny" text-anchor="start">1703 mm</text>
<text x="1087.0" y="1697.0" class="tiny" text-anchor="start">more rack capacity; less trolley height</text>
<text x="75.0" y="1759.0" class="label" text-anchor="start" style="font-weight:700">Width interpretation:</text>
<rect x="250.0" y="1735.0" width="230.0" height="44.0" rx="7" class="cab600"/>
<text x="365.0" y="1754.0" class="label" text-anchor="middle" style="font-weight:700">600W</text>
<text x="365.0" y="1773.0" class="tiny" text-anchor="middle">easy/common</text>
<rect x="520.0" y="1735.0" width="230.0" height="44.0" rx="7" class="cab752"/>
<text x="635.0" y="1754.0" class="label" text-anchor="middle" style="font-weight:700">752W</text>
<text x="635.0" y="1773.0" class="tiny" text-anchor="middle">best wide</text>
<rect x="790.0" y="1735.0" width="230.0" height="44.0" rx="7" class="cab800"/>
<text x="905.0" y="1754.0" class="label" text-anchor="middle" style="font-weight:700">800W</text>
<text x="905.0" y="1773.0" class="tiny" text-anchor="middle">sensible max</text>
<rect x="1060.0" y="1735.0" width="230.0" height="44.0" rx="7" class="warn"/>
<text x="1175.0" y="1754.0" class="label" text-anchor="middle" style="font-weight:700">900W</text>
<text x="1175.0" y="1773.0" class="tiny" text-anchor="middle">possible but avoid</text>
<rect x="1330.0" y="1735.0" width="230.0" height="44.0" rx="7" class="bad"/>
<text x="1445.0" y="1754.0" class="label" text-anchor="middle" style="font-weight:700">1000W</text>
<text x="1445.0" y="1773.0" class="tiny" text-anchor="middle">too tight</text>
<text x="75.0" y="1827.0" class="small" text-anchor="start">Formulas: side clearance = (1040 - cabinet width)/2. Cart height = 2590 - top clearance - cabinet height - 50. Clear aisle = 1650 - cabinet depth.</text>
<text x="75.0" y="1853.0" class="small" text-anchor="start">Recommendation: B2/B3 top cabinet; trolley around 900-980W x 450-600D x 1350-1600H, even though the absolute height limits are higher.</text>
<text x="50.0" y="2045.0" class="subtitle" text-anchor="start">Generated as a corrected focus artefact. Verify finished plasterboard, skirting/trim, cabinet SKU drawings, wall blocking/noggins and ventilation path before ordering.</text>
</svg>