<svg xmlns="http://www.w3.org/2000/svg" width="1700" height="1480" viewBox="0 0 1700 1480">
<defs>
  <marker id="arrow" markerWidth="10" markerHeight="10" refX="5" refY="5" orient="auto-start-reverse">
    <path d="M0,0 L10,5 L0,10 Z" fill="#374151" />
  </marker>
</defs>

<style>
  .bg{fill:#ffffff}
  .wall{stroke:#111;stroke-width:4;fill:none}
  .thin{stroke:#333;stroke-width:1.5;fill:none}
  .dash{stroke-dasharray:8 5}
  .dim{stroke:#374151;stroke-width:1.15;fill:none;marker-start:url(#arrow);marker-end:url(#arrow)}
  .label{font-family:Arial, Helvetica, sans-serif;font-size:15px;fill:#111827}
  .small{font-family:Arial, Helvetica, sans-serif;font-size:12px;fill:#374151}
  .tiny{font-family:Arial, Helvetica, sans-serif;font-size:10px;fill:#374151}
  .title{font-family:Arial, Helvetica, sans-serif;font-size:26px;font-weight:700;fill:#111827}
  .subtitle{font-family:Arial, Helvetica, sans-serif;font-size:14px;fill:#4b5563}
  .section{font-family:Arial, Helvetica, sans-serif;font-size:17px;font-weight:700;fill:#111827}
  .note{font-family:Arial, Helvetica, sans-serif;font-size:12px;fill:#4b5563}
  .soft{fill:#f3f4f6;stroke:#d1d5db;stroke-width:1}
  .cab6{fill:#dbeafe;stroke:#1d4ed8;stroke-width:2}
  .cab9{fill:#dcfce7;stroke:#15803d;stroke-width:2}
  .cab12{fill:#ffedd5;stroke:#c2410c;stroke-width:2}
  .cart{fill:#e5e7eb;stroke:#374151;stroke-width:2}
  .zone{fill:#fef3c7;stroke:#92400e;stroke-width:2;stroke-dasharray:7 5}
  .vent{fill:#ecfeff;stroke:#0891b2;stroke-width:1.5;stroke-dasharray:5 4}
  .warn{fill:#fff7ed;stroke:#fdba74;stroke-width:1.5}
  .sweep{fill:#fef2f2;stroke:#ef4444;stroke-width:1.5;stroke-dasharray:6 5}
  .grid{stroke:#e5e7eb;stroke-width:0.6}
</style>

<rect class="bg" x="0" y="0" width="1700" height="1480"/>
<text class="title" x="44" y="42">Laundry nook networking cabinet / tower-cart envelope</text>
<text class="subtitle" x="44" y="66">WD3 plan-derived geometry. Units in millimetres. Drawing values are nominal: confirm finished-site dimensions before fabrication.</text>

<text class="section" x="60" y="105">1) Plan view — target nook beside linen</text>
<rect class="wall" x="60.0" y="150.0" width="297.0" height="775.8"/>
<line class="grid" x1="150.0" y1="150.0" x2="150.0" y2="925.8"/>
<line class="grid" x1="240.0" y1="150.0" x2="240.0" y2="925.8"/>
<line class="grid" x1="330.0" y1="150.0" x2="330.0" y2="925.8"/>
<line class="grid" x1="60.0" y1="240.0" x2="357.0" y2="240.0"/>
<line class="grid" x1="60.0" y1="330.0" x2="357.0" y2="330.0"/>
<line class="grid" x1="60.0" y1="420.0" x2="357.0" y2="420.0"/>
<line class="grid" x1="60.0" y1="510.0" x2="357.0" y2="510.0"/>
<line class="grid" x1="60.0" y1="600.0" x2="357.0" y2="600.0"/>
<line class="grid" x1="60.0" y1="690.0" x2="357.0" y2="690.0"/>
<line class="grid" x1="60.0" y1="780.0" x2="357.0" y2="780.0"/>
<line class="grid" x1="60.0" y1="870.0" x2="357.0" y2="870.0"/>
<rect class="soft" x="245.4" y="150.0" width="111.6" height="172.8"/>
<text class="tiny" x="301.2" y="236.4" text-anchor="middle" transform="rotate(-90 301.2 236.4)">WM space</text>
<rect class="soft" x="245.4" y="322.8" width="111.6" height="108.0"/>
<text class="tiny" x="301.2" y="376.8" text-anchor="middle" transform="rotate(-90 301.2 376.8)">Tub 600</text>
<rect class="soft" x="245.4" y="430.8" width="111.6" height="307.8"/>
<text class="tiny" x="301.2" y="584.7" text-anchor="middle" transform="rotate(-90 301.2 584.7)">Linen 1710</text>
<rect class="zone" x="245.4" y="738.6" width="111.6" height="187.2"/>
<text class="tiny" x="301.2" y="832.2" text-anchor="middle" transform="rotate(-90 301.2 832.2)">TARGET NOOK 1040</text>
<rect class="thin dash" x="276.0" y="738.6" width="81.0" height="187.2"/>
<text class="tiny" x="316.5" y="756.6" text-anchor="middle">450D</text>
<rect class="thin dash" x="249.0" y="738.6" width="108.0" height="187.2"/>
<text class="tiny" x="303.0" y="756.6" text-anchor="middle">600D</text>
<path class="sweep" d="M 60.0 925.8 L 60.0 769.2 A 156.6 156.6 0 0 1 216.6 925.8 Z"/>
<text class="tiny" x="130" y="843.8">870 door swing</text>
<line class="thin dash" x1="216.6" y1="738.6" x2="216.6" y2="925.8"/>
<text class="tiny" x="220.6" y="762.0">door limit</text>
<line class="dim" x1="60.0" y1="122.0" x2="357.0" y2="122.0"/><text class="small" x="208.5" y="115.0" text-anchor="middle">1650 room width</text>
<line class="dim" x1="395.0" y1="150.0" x2="395.0" y2="925.8"/><text class="small" x="387.0" y="537.9" text-anchor="middle" transform="rotate(-90 387.0 537.9)">4310 room length</text>
<line class="dim" x1="245.4" y1="726.6" x2="357.0" y2="726.6"/><text class="small" x="301.2" y="719.6" text-anchor="middle">620 depth</text>
<line class="dim" x1="390.0" y1="738.6" x2="390.0" y2="925.8"/><text class="small" x="382.0" y="832.2" text-anchor="middle" transform="rotate(-90 382.0 832.2)">1040 nook</text>
<text class="label" x="60" y="967.8">Envelope: 1040 wall length x 620 depth. Build cart no wider than 980 and no deeper than 600 until site verified.</text>
<text class="section" x="455" y="105">2) Nook elevation — high wall cabinet</text>
<rect class="wall" x="455.0" y="150.0" width="228.8" height="569.8"/>
<line class="dim" x1="455.0" y1="122.0" x2="683.8" y2="122.0"/><text class="small" x="569.4" y="115.0" text-anchor="middle">1040 available wall</text>
<line class="dim" x1="717.8" y1="150.0" x2="717.8" y2="719.8"/><text class="small" x="709.8" y="434.9" text-anchor="middle" transform="rotate(-90 709.8 434.9)">2590 ceiling</text>
<rect class="vent" x="455.0" y="150.0" width="228.8" height="33.0"/>
<text class="tiny" x="461.0" y="168.0">150 min ventilation/service zone</text>
<rect class="cab12" x="503.4" y="183.0" width="132.0" height="140.8" opacity="0.72"/>
<text class="small" x="569.4" y="253.4" text-anchor="middle">600W cabinet zone</text>
<line class="thin dash" x1="455.0" y1="265.5" x2="683.8" y2="265.5"/>
<line class="thin dash" x1="683.8" y1="265.5" x2="731.8" y2="265.5"/><text class="tiny" x="735.8" y="269.5">A bottom 2065</text>
<line class="thin dash" x1="455.0" y1="295.2" x2="683.8" y2="295.2"/>
<line class="thin dash" x1="683.8" y1="295.2" x2="731.8" y2="295.2"/><text class="tiny" x="735.8" y="299.2">B bottom 1930</text>
<line class="thin dash" x1="455.0" y1="323.8" x2="683.8" y2="323.8"/>
<line class="thin dash" x1="683.8" y1="323.8" x2="731.8" y2="323.8"/><text class="tiny" x="735.8" y="327.8">C bottom 1800</text>
<rect class="cart" x="461.6" y="334.8" width="215.6" height="385.0" opacity="0.45"/>
<text class="tiny" x="569.4" y="527.3" text-anchor="middle">cart envelope up to 980W x 600D x 1750H</text>
<text class="tiny" x="455.0" y="747.8">600W cabinet centred leaves 220mm side clearance each side.</text>
<text class="section" x="850" y="105">3) Side/depth — walkway and door swing</text>
<rect class="wall" x="850.0" y="150.0" width="495.0" height="569.8"/>
<line class="dim" x1="850.0" y1="122.0" x2="1345.0" y2="122.0"/><text class="small" x="1097.5" y="115.0" text-anchor="middle">1650 room width</text>
<line class="dim" x1="1380.0" y1="150.0" x2="1380.0" y2="719.8"/><text class="small" x="1372.0" y="434.9" text-anchor="middle" transform="rotate(-90 1372.0 434.9)">2590 ceiling</text>
<rect class="sweep" x="850.0" y="150.0" width="261.0" height="569.8" opacity="0.16"/>
<line class="thin dash" x1="1111.0" y1="150.0" x2="1111.0" y2="719.8"/>
<text class="tiny" x="1116.0" y="168.0">870 door-sweep line</text>
<rect class="cab9" x="1210.0" y="190.0" width="135.0" height="489.8" opacity="0.22"/>
<text class="tiny" x="1218.0" y="190.0">450D shallow cabinet</text>
<rect class="cab12" x="1165.0" y="190.0" width="180.0" height="489.8" opacity="0.22"/>
<text class="tiny" x="1173.0" y="222.0">600D cabinet/cart</text>
<rect class="zone" x="1159.0" y="190.0" width="186.0" height="489.8" opacity="0.22"/>
<text class="tiny" x="1167.0" y="254.0">620D joinery line</text>
<line class="dim" x1="850.0" y1="747.8" x2="1165.0" y2="747.8"/><text class="small" x="1007.5" y="740.8" text-anchor="middle">1050 clear with 600D</text>
<line class="dim" x1="1165.0" y1="747.8" x2="1345.0" y2="747.8"/><text class="small" x="1255.0" y="740.8" text-anchor="middle">600 device depth</text>
<text class="tiny" x="850" y="781.8">600D leaves 1050 clear; door-sweep margin = 180. 450D leaves 1200 clear.</text>
<text class="tiny" x="850" y="799.8">Absolute max depth before modelled door-sweep contact = 780; recommended depth = 600-620.</text>
<text class="section" x="60" y="953">Mounting options — calculated high-mount envelope</text>
<rect class="soft" x="60" y="985" width="510" height="300" rx="8"/>
<rect class="cab6" x="78" y="1003" width="120" height="60.0" rx="3"/>
<text class="label" x="215" y="1023">Option A: 6U shallow wall cabinet</text>
<text class="small" x="78" y="1125">Cabinet: 600W x 450D x 375H</text>
<text class="small" x="78" y="1150">Top at 2440 leaves 150 to ceiling</text>
<text class="small" x="78" y="1175">Bottom at 2065; cart height &lt;= 2015</text>
<text class="small" x="78" y="1200">Walkway clear 1200; door-swing margin 330</text>
<text class="small" x="78" y="1225">600W cabinet side clearance 220 each side</text>
<text class="note" x="78" y="1265">Fits easily, but rack-unit budget is tight.</text>
<rect class="soft" x="595" y="985" width="510" height="300" rx="8"/>
<rect class="cab9" x="613" y="1003" width="120" height="81.6" rx="3"/>
<text class="label" x="750" y="1023">Option B: 9U shallow wall cabinet</text>
<text class="small" x="613" y="1125">Cabinet: 600W x 450D x 510H</text>
<text class="small" x="613" y="1150">Top at 2440 leaves 150 to ceiling</text>
<text class="small" x="613" y="1175">Bottom at 1930; cart height &lt;= 1880</text>
<text class="small" x="613" y="1200">Walkway clear 1200; door-swing margin 330</text>
<text class="small" x="613" y="1225">600W cabinet side clearance 220 each side</text>
<text class="note" x="613" y="1265">Best balance for patch + switches + router shelf.</text>
<rect class="soft" x="1130" y="985" width="510" height="300" rx="8"/>
<rect class="cab12" x="1148" y="1003" width="120" height="102.4" rx="3"/>
<text class="label" x="1285" y="1023">Option C: 12U deeper wall cabinet</text>
<text class="small" x="1148" y="1125">Cabinet: 600W x 600D x 640H</text>
<text class="small" x="1148" y="1150">Top at 2440 leaves 150 to ceiling</text>
<text class="small" x="1148" y="1175">Bottom at 1800; cart height &lt;= 1750</text>
<text class="small" x="1148" y="1200">Walkway clear 1050; door-swing margin 180</text>
<text class="small" x="1148" y="1225">600W cabinet side clearance 220 each side</text>
<text class="note" x="1148" y="1265">Best depth/headroom for pfSense/OPNsense; needs blocking/fans.</text>
<rect class="warn" x="60" y="1330" width="1560" height="95" rx="6"/>
<text class="note" x="80" y="1356">Assumptions: target is the 1040 blank segment beside the 1710 linen door; depth is the 620 Laundry D joinery/appliance line; door-swing model uses the 870 door radius.</text>
<text class="note" x="80" y="1380">Fabrication rule: cart &lt;= 980W x 600D until site measurement. Wall cabinet and tower cart should be structurally independent.</text>
<text class="note" x="80" y="1404">Structural/thermal rule: add noggins/backing or plywood backboard before sheeting for 9U/12U. Keep 150-200 top clearance and use cabinet fans for 10GbE/router heat.</text>
</svg>